<svg id="Layer_1" data-name="Layer 1" xmlns="http://www.w3.org/2000/svg" viewBox="0 0 500 500" width="500" height="500" class="illustration"><defs><style>.cls-1{fill:#e2e2e2;}.cls-2{fill:#24285b;}.cls-3{fill:#13183f;}.cls-4{fill:#c3c7c9;}.cls-5{fill:#f2f2f2;}.cls-6{fill:#f0457d;}.cls-7{fill:#db2868;}.cls-8{fill:#fff;}</style></defs><title>Contact Us</title><rect class="cls-1" x="47.54" y="70.4" width="404.92" height="294.49" rx="17.34"></rect><path class="cls-2" d="M64.88,67.06H435.12A17.34,17.34,0,0,1,452.46,84.4V303a0,0,0,0,1,0,0H47.54a0,0,0,0,1,0,0V84.4A17.34,17.34,0,0,1,64.88,67.06Z"></path><circle class="cls-2" cx="250.43" cy="334.39" r="8.24"></circle><path class="cls-3" d="M255.36,341a8.25,8.25,0,0,0-11-10.64,8.73,8.73,0,0,0-1.6.94,8.25,8.25,0,1,1,12.57,9.7Z"></path><polygon class="cls-1" points="301.87 364.89 198.97 364.89 190.6 421.78 310.24 421.78 301.87 364.89"></polygon><polygon class="cls-4" points="195.97 385.26 304.87 385.26 301.87 364.89 198.97 364.89 195.97 385.26"></polygon><rect class="cls-4" x="181.4" y="420.11" width="138.04" height="6.69" rx="2.29"></rect><rect class="cls-5" x="63.43" y="83.79" width="372.3" height="203.3"></rect><path class="cls-6" d="M260.42,56.3,375.13,248.41c5.4,9-.19,21.41-9.69,21.41H136c-9.5,0-15.09-12.36-9.68-21.41L241.05,56.3C245.73,48.46,255.73,48.46,260.42,56.3Z"></path><path class="cls-7" d="M375.13,248.41,260.42,56.3c-4.69-7.84-14.69-7.84-19.37,0L233,69.84l97,162.38c5.4,9.05-.19,21.41-9.69,21.41H124.43c-1.31,7.95,3.84,16.19,11.59,16.19H365.44C374.94,269.82,380.53,257.46,375.13,248.41Z"></path><path class="cls-8" d="M244.35,229.09a7.67,7.67,0,0,1,0-10.91A7.76,7.76,0,0,1,250,216a7.39,7.39,0,0,1,5.51,2.21A7.7,7.7,0,0,1,250,231.3,7.76,7.76,0,0,1,244.35,229.09Zm-1.2-82.37h13.54l-2.28,57.39H245.3Z"></path></svg>